<svg width="16" height="16" viewBox="0 0 12 14" fill="none" xmlns="http://www.w3.org/2000/svg" aria-hidden="true">
    <path d="M7.3256 5.66658L7.3256 3.66659L5.99227 3.66658L5.99227 5.66658H7.3256Z" fill="black">
    </path>
    <path d="M8.65894 0.333252L3.3256 0.333252C1.85284 0.333252 0.658936 1.52716 0.658936 2.99992L0.658936 10.9999C0.658935 12.4727 1.85284 13.6666 3.3256 13.6666H8.65894C10.1317 13.6666 11.3256 12.4727 11.3256 10.9999V2.99992C11.3256 1.52716 10.1317 0.333252 8.65894 0.333252ZM9.99227 2.99992V10.9999C9.99227 11.7363 9.39532 12.3333 8.65894 12.3333H3.3256C2.58922 12.3333 1.99227 11.7363 1.99227 10.9999L1.99227 2.99992C1.99227 2.26354 2.58922 1.66658 3.3256 1.66659L8.65894 1.66659C9.39532 1.66659 9.99227 2.26354 9.99227 2.99992Z" fill="black">
    </path>
</svg>