<svg width="18" height="19" viewBox="0 0 18 19" fill="none" xmlns="http://www.w3.org/2000/svg"><path d="M9.83278 3.99984H8.16611V4.83645C7.26725 4.88792 6.50838 5.54032 6.32994 6.43256C6.11176 7.52342 6.83044 8.58122 7.92497 8.78022L10.1929 9.19257C10.3705 9.22486 10.4871 9.39655 10.4517 9.57359C10.4215 9.72453 10.289 9.83317 10.1351 9.83317H6.49985V11.4998H8.16611V12.3332H9.83278V11.4998H10.1351C11.0835 11.4998 11.9 10.8304 12.086 9.90045C12.3042 8.80959 11.5855 7.75179 10.491 7.55278L8.22311 7.14044C8.04547 7.10814 7.92883 6.93646 7.96424 6.75942C7.99442 6.60848 8.12695 6.49984 8.28087 6.49984H11.4999V4.83317H9.83278V3.99984Z" fill="black"></path><path d="M12.3332 15.6665L17.3332 18.1665V3.99984C17.3332 2.15889 15.8408 0.666504 13.9998 0.666504H3.99984C2.15889 0.666504 0.666504 2.15889 0.666504 3.99984V12.3332C0.666504 14.1741 2.15889 15.6665 3.99984 15.6665H12.3332ZM15.6665 15.4698L12.7266 13.9998H3.99984C3.07936 13.9998 2.33317 13.2536 2.33317 12.3332V3.99984C2.33317 3.07936 3.07936 2.33317 3.99984 2.33317H13.9998C14.9203 2.33317 15.6665 3.07936 15.6665 3.99984V15.4698Z" fill="black"></path></svg>