<svg aria-hidden="true" width="24" height="24" viewBox="0 0 24 24" fill="none" xmlns="http://www.w3.org/2000/svg">
    <path d="M2 8C2 5.79086 3.79086 4 6 4H18C20.2091 4 22 5.79086 22 8V16C22 18.2091 20.2091 20 18 20H6C3.79086 20 2 18.2091 2 16V8ZM5.91595 6.00173L12 12.0858L18.0841 6.00173C18.0562 6.00058 18.0282 6 18 6H6C5.97184 6 5.94382 6.00058 5.91595 6.00173ZM4.20426 7.11847C4.07346 7.3844 4 7.68362 4 8V16C4 17.1046 4.89543 18 6 18H18C19.1046 18 20 17.1046 20 16V8C20 7.68362 19.9265 7.3844 19.7957 7.11847L12.7071 14.2071C12.3166 14.5976 11.6834 14.5976 11.2929 14.2071L4.20426 7.11847Z" fill="#ffffff"></path>
</svg>