<svg width="16" height="16" viewBox="0 0 15 14" fill="none" xmlns="http://www.w3.org/2000/svg" aria-hidden="true"><path d="M12.1758 6.92725C12.2738 6.52306 12.3257 6.10089 12.3257 5.66659C12.3257 2.72107 9.93787 0.333252 6.99235 0.333252C4.04683 0.333252 1.65902 2.72107 1.65902 5.66659C1.65902 6.34436 1.78545 6.99261 2.01601 7.58904C1.76888 7.7594 1.54345 7.96405 1.34728 8.19945L1.09828 8.49826C0.599071 9.09731 0.325684 9.85242 0.325684 10.6322V13.6667H8.88778C9.77184 13.6667 10.6197 13.3155 11.2448 12.6904L13.4638 10.4715C14.2764 9.65884 14.2764 8.3413 13.4638 7.52867C13.1041 7.16906 12.6457 6.96859 12.1758 6.92725ZM3.24427 7.0668C3.0814 6.631 2.99235 6.15919 2.99235 5.66659C2.99235 3.45745 4.78321 1.66659 6.99235 1.66659C9.20149 1.66659 10.9924 3.45745 10.9924 5.66659C10.9924 6.32879 10.8314 6.95341 10.5466 7.50347C10.538 7.51178 10.5294 7.52018 10.5209 7.52866L9.5862 8.46341C9.5064 8.17622 9.36412 7.91503 9.17492 7.6954C9.31362 7.51026 9.41349 7.29276 9.46129 7.05374C9.63583 6.18105 9.06088 5.33481 8.18527 5.17561L6.37096 4.84573C6.22884 4.8199 6.13553 4.68255 6.16386 4.54092C6.18801 4.42017 6.29403 4.33325 6.41717 4.33325H8.99235V2.99992H7.65902V2.33325H6.32568V3.00252C5.60646 3.04356 4.9992 3.56553 4.85642 4.27943C4.68188 5.15212 5.25682 5.99836 6.13244 6.15756L7.94675 6.48744C8.08887 6.51327 8.18218 6.65062 8.15385 6.79226C8.1297 6.913 8.02368 6.99992 7.90054 6.99992L3.90802 7.00007C3.68313 7.00007 3.46089 7.02278 3.24427 7.0668ZM11.4638 8.47147C11.7557 8.17954 12.229 8.17954 12.5209 8.47148C12.8129 8.76341 12.8129 9.23673 12.5209 9.52867L10.302 11.7476C9.92692 12.1227 9.41821 12.3334 8.88778 12.3334H1.65902V10.6322C1.65902 10.1643 1.82305 9.71126 2.12257 9.35184L2.37157 9.05303C2.75156 8.59705 3.31446 8.3334 3.90802 8.3334H7.65902C8.02721 8.3334 8.32568 8.63188 8.32568 9.00007C8.32568 9.31917 8.10149 9.58591 7.80203 9.65136C7.72032 9.66155 7.63765 9.66674 7.55445 9.66674H3.99235V11.0001H7.65902C7.78366 11.0001 7.90564 10.9887 8.02397 10.9669C8.73448 10.8658 9.39808 10.5371 9.91147 10.0238L11.4638 8.47147Z" fill="black"></path></svg>