<svg aria-hidden="true" width="25" height="24" viewBox="0 0 25 24" fill="none" xmlns="http://www.w3.org/2000/svg">
    <path d="M13.5 8.26795C13.1187 8.04782 12.6755 7.95965 12.239 8.01711C11.8025 8.07458 11.3971 8.27447 11.0858 8.58579C10.7745 8.89711 10.5746 9.30245 10.5171 9.73895C10.4909 9.93785 10.495 10.1381 10.528 10.3333L8.55595 10.6667C8.48996 10.2763 8.48186 9.87567 8.53422 9.4779C8.64916 8.6049 9.04894 7.79421 9.67158 7.17158C10.2942 6.54894 11.1049 6.14916 11.9779 6.03422C12.8509 5.91929 13.7374 6.09563 14.5 6.5359C15.2626 6.97617 15.8586 7.65576 16.1955 8.46927C16.5325 9.28278 16.5916 10.1847 16.3637 11.0353C16.1358 11.8858 15.6336 12.6374 14.935 13.1734C14.5123 13.4978 14.1358 13.8134 13.8654 14.1449C13.599 14.4713 13.5 14.7347 13.5 14.9635V15H11.5V14.9635C11.5 14.1079 11.884 13.4096 12.3157 12.8805C12.7433 12.3564 13.2799 11.9225 13.7175 11.5867C14.0668 11.3187 14.3179 10.9429 14.4319 10.5176C14.5458 10.0924 14.5162 9.64139 14.3478 9.23464C14.1793 8.82788 13.8813 8.48809 13.5 8.26795Z" fill="#ffffff"></path>
    <path d="M13.5 18V16H11.5V18H13.5Z" fill="#ffffff"></path>
    <path d="M12.5 22C18.0228 22 22.5 17.5228 22.5 12C22.5 6.47715 18.0228 2 12.5 2C6.97715 2 2.5 6.47715 2.5 12C2.5 17.5228 6.97715 22 12.5 22ZM12.5 20C8.08172 20 4.5 16.4183 4.5 12C4.5 7.58172 8.08172 4 12.5 4C16.9183 4 20.5 7.58172 20.5 12C20.5 16.4183 16.9183 20 12.5 20Z" fill="#ffffff"></path>
</svg>