<svg width="32" height="32" viewBox="0 0 32 32" fill="none" xmlns="http://www.w3.org/2000/svg">
  <rect width="32" height="32" rx="16" fill="#8226bf"/>
  <path d="M19.3327 12.6663C19.3327 14.5073 17.8403 15.9997 15.9993 15.9997C14.1584 15.9997 12.666 14.5073 12.666 12.6663C12.666 10.8254 14.1584 9.33301 15.9993 9.33301C17.8403 9.33301 19.3327 10.8254 19.3327 12.6663ZM17.9993 12.6663C17.9993 11.5618 17.1039 10.6663 15.9993 10.6663C14.8948 10.6663 13.9993 11.5618 13.9993 12.6663C13.9993 13.7709 14.8948 14.6663 15.9993 14.6663C17.1039 14.6663 17.9993 13.7709 17.9993 12.6663Z" fill="white"/>
  <path d="M21.3327 22.6663C21.3327 19.7208 18.9449 17.333 15.9993 17.333C13.0538 17.333 10.666 19.7208 10.666 22.6663H11.9993C11.9993 20.4572 13.7902 18.6663 15.9993 18.6663C18.2085 18.6663 19.9993 20.4572 19.9993 22.6663H21.3327Z" fill="white"/>
</svg>