<svg width="16" height="16" viewBox="0 0 16 16" fill="none" xmlns="http://www.w3.org/2000/svg" aria-hidden="true">
<path d="M9.87766 1.40043C8.83626 0.359035 7.14782 0.359035 6.10642 1.40043L1.39238 6.11448C0.350979 7.15588 0.350979 8.84432 1.39238 9.88571L6.10642 14.5998C7.14782 15.6412 8.83626 15.6412 9.87766 14.5998L14.5917 9.88571C15.6331 8.84432 15.6331 7.15588 14.5917 6.11448L9.87766 1.40043ZM10.6097 4.01811C10.1782 4.07643 9.77479 4.27453 9.46345 4.58587L7.99204 6.05728L6.52064 4.58587C6.20929 4.27453 5.80586 4.07643 5.37437 4.01811L7.04923 2.34324C7.56993 1.82254 8.41415 1.82254 8.93485 2.34324L10.6097 4.01811ZM11.925 5.33342L13.6489 7.05729C14.1696 7.57799 14.1696 8.42221 13.6489 8.9429L11.925 10.6668H10.8777C10.7008 10.6668 10.5313 10.5965 10.4063 10.4715L8.93485 9.00008C8.41415 8.47939 7.56993 8.47938 7.04923 9.00008L5.57783 10.4715C5.4528 10.5965 5.28323 10.6668 5.10642 10.6668H4.05903L2.33519 8.9429C1.81449 8.42221 1.81449 7.57799 2.33519 7.05729L4.05905 5.33342H5.10642C5.28323 5.33342 5.4528 5.40366 5.57783 5.52868L7.04923 7.00009C7.56993 7.52079 8.41415 7.52078 8.93485 7.00009L10.4063 5.52868C10.5313 5.40366 10.7008 5.33342 10.8777 5.33342H11.925ZM7.04923 13.6569L5.37435 11.9821C5.80585 11.9237 6.20929 11.7256 6.52064 11.4143L7.99204 9.94289L9.46345 11.4143C9.77479 11.7256 10.1782 11.9237 10.6097 11.9821L8.93485 13.6569C8.41415 14.1776 7.56993 14.1776 7.04923 13.6569Z" fill="black"></path>
</svg>