<svg width="16" height="18" viewBox="0 0 16 18" fill="none" xmlns="http://www.w3.org/2000/svg" aria-hidden="true">
    <path d="M12.1667 5.66602H15.5V13.9993C15.5 15.8403 14.0076 17.3327 12.1667 17.3327H3.83333C1.99238 17.3327 0.5 15.8403 0.5 13.9993V5.66602H3.83333V4.83268C3.83333 2.57041 5.69339 0.666016 8 0.666016C10.3066 0.666016 12.1667 2.57041 12.1667 4.83268V5.66602ZM5.5 7.33268V8.99935H3.83333V7.33268H2.16667V13.9993C2.16667 14.9198 2.91286 15.666 3.83333 15.666H12.1667C13.0871 15.666 13.8333 14.9198 13.8333 13.9993V7.33268H12.1667V8.99935H10.5V7.33268H5.5ZM5.5 5.66602H10.5V4.83268C10.5 3.48 9.37529 2.33268 8 2.33268C6.62471 2.33268 5.5 3.48 5.5 4.83268V5.66602Z" fill="black"></path>
</svg>